Coordinates
version=1
nRows=6
nColumns=63
inDegrees=yes

Units are S.I. units (second, meters, Newtons, ...)
If the header above contains a line with 'inDegrees', this indicates whether rotational values are in degrees (yes) or radians (no).

endheader
time	pelvis_tilt	pelvis_list	pelvis_rotation	pelvis_tx	pelvis_ty	pelvis_tz	hip_flexion_r	hip_adduction_r	hip_rotation_r	knee_angle_r	knee_angle_r_beta	ankle_angle_r	subtalar_angle_r	mtp_angle_r	hip_flexion_l	hip_adduction_l	hip_rotation_l	knee_angle_l	knee_angle_l_beta	ankle_angle_l	subtalar_angle_l	mtp_angle_l	L5_S1_Flex_Ext	L5_S1_Lat_Bending	L5_S1_axial_rotation	L4_L5_Flex_Ext	L4_L5_Lat_Bending	L4_L5_axial_rotation	L3_L4_Flex_Ext	L3_L4_Lat_Bending	L3_L4_axial_rotation	L2_L3_Flex_Ext	L2_L3_Lat_Bending	L2_L3_axial_rotation	L1_L2_Flex_Ext	L1_L2_Lat_Bending	L1_L2_axial_rotation	L1_T12_Flex_Ext	L1_T12_Lat_Bending	L1_T12_axial_rotation	Abs_r3	Abs_r2	Abs_r1	Abs_t1	Abs_t2	neck_flexion	neck_bending	neck_rotation	arm_flex_r	arm_add_r	arm_rot_r	elbow_flex_r	pro_sup_r	wrist_flex_r	wrist_dev_r	arm_flex_l	arm_add_l	arm_rot_l	elbow_flex_l	pro_sup_l	wrist_flex_l	wrist_dev_l
      0.00000000	     -8.27858681	     -5.48838254	     90.28392136	      0.19697504	      0.80295532	      0.63147497	      3.21344837	    -10.19936073	    -15.95151452	      5.77278050	      0.10075403	     11.15437289	     15.02517032	      0.00000000	      6.44545110	      8.30081535	      7.87396776	      9.80461602	      0.17112283	    -10.17191875	    -18.60422000	      0.00000000	      0.31370021	     -0.80905461	      0.13900090	      0.58257266	     -1.07604263	      0.14768846	      0.51537807	     -1.96713537	      0.14768846	      0.35852797	     -1.96713537	      0.12162579	      0.29130201	     -1.64982416	      0.11293823	      0.17924830	     -1.25322559	      0.10425068	      2.24072923	     -9.15218753	      0.77308132	      0.00000000	      0.00000000	     28.07420189	     -1.09136652	     -3.52386036	     14.48625544	     -2.87585363	     62.99094444	     34.96732102	     25.45037061	      0.62463778	      9.09085425	     20.50561377	     -4.02167101	     70.14103049	     36.93148506	     55.08991699	     -0.77446642	      6.13583176
      0.01694915	     -8.54417898	     -5.36510244	     90.39735935	      0.19712990	      0.80314913	      0.63082062	      2.82170133	    -10.36991680	    -14.12019874	      5.31959496	      0.09284445	     11.39173772	     13.77706742	      0.00000000	      6.48709159	      8.59319617	      6.82962952	     10.16842588	      0.17747251	    -10.61390510	    -18.46949399	      0.00000000	      0.31124880	     -0.84183473	      0.08030231	      0.57802014	     -1.11964019	      0.08532121	      0.51135065	     -2.04683695	      0.08532121	      0.35572625	     -2.04683695	      0.07026452	      0.28902563	     -1.71666937	      0.06524563	      0.17784756	     -1.30400199	      0.06022674	      2.22321903	     -9.52300279	      0.44661738	      0.00000000	      0.00000000	     28.04687613	     -0.18073484	     -2.28521207	     13.88758369	     -2.87629562	     60.91440681	     35.86199269	     28.73245538	      0.30778975	      9.40790637	     20.33788304	     -4.46233468	     69.82351673	     37.60029518	     50.41983150	     -0.90353576	      7.04312502
      0.03389831	     -8.79880777	     -5.26165437	     90.46029683	      0.19745227	      0.80327829	      0.63063348	      2.58518694	    -10.60299813	    -13.56267242	      5.16968797	      0.09022808	     11.86954731	     13.67048697	      0.00000000	      6.58332563	      8.85030479	      6.01165202	     10.58969397	      0.18482503	    -10.91037965	    -18.37606374	      0.00000000	      0.30063471	     -0.87359237	      0.04610191	      0.55830872	     -1.16187785	      0.04898328	      0.49391277	     -2.12405249	      0.04898328	      0.34359541	     -2.12405249	      0.04033917	      0.27916939	     -1.78142956	      0.03745780	      0.17178267	     -1.35319458	      0.03457643	      2.14740369	     -9.88225160	      0.25640500	      0.00000000	      0.00000000	     28.02404393	      0.32324765	     -1.55294506	     13.41167303	     -2.80568966	     58.88710472	     36.61855825	     31.23290652	      0.07468155	      9.82334382	     20.40701759	     -4.81484705	     69.85487306	     38.16617683	     46.98475304	     -1.36285144	      7.14943520
      0.05084746	     -9.02865826	     -5.17829410	     90.35586240	      0.19807660	      0.80331302	      0.63058599	      2.44822947	    -10.78676032	    -12.74222816	      5.09347857	      0.08889797	     12.40916025	     13.02247488	      0.00000000	      6.63837153	      9.04952385	      5.39196099	     10.88715854	      0.19001676	    -11.16988341	    -18.39555321	      0.00000000	      0.29200836	     -0.90307192	      0.04563013	      0.54228872	     -1.20108565	      0.04848201	      0.47974053	     -2.19572907	      0.04848201	      0.33373635	     -2.19572907	      0.03992636	      0.27115896	     -1.84154426	      0.03707448	      0.16685358	     -1.39885841	      0.03422260	      2.08578650	    -10.21573018	      0.25378108	      0.00000000	      0.00000000	     28.00031611	      0.32780446	     -1.52387082	     13.10986776	     -2.69060589	     57.42479839	     37.21732304	     31.89951228	     -0.19739297	     10.09252463	     20.48814971	     -5.10088135	     69.62397010	     38.62846668	     45.50737078	     -1.72898082	      6.78589921
      0.06779661	     -9.22746167	     -5.10619645	     90.30817686	      0.19868256	      0.80332619	      0.63077102	      2.37291188	    -10.98187198	    -12.77128620	      5.17616877	      0.09034119	     13.09934048	     13.14472735	      0.00000000	      6.69330139	      9.21498978	      5.04070347	     11.16246413	      0.19482175	    -11.31491969	    -18.45301918	      0.00000000	      0.27969631	     -0.92870856	      0.02972287	      0.51942401	     -1.23518238	      0.03158055	      0.45951307	     -2.25806199	      0.03158055	      0.31966491	     -2.25806199	      0.02600751	      0.25972599	     -1.89382249	      0.02414983	      0.15981847	     -1.43856955	      0.02229215	      1.99784276	    -10.50573694	      0.16530968	      0.00000000	      0.00000000	     27.98655104	      0.14731695	     -1.70572316	     13.02779168	     -2.53966733	     56.64529367	     37.70574815	     29.94988734	     -0.65145149	     10.51452677	     20.54412454	     -5.35132701	     69.04643699	     39.02930502	     45.56445392	     -2.02251118	      6.31350764
      0.08474576	     -9.34852032	     -5.07248916	     90.25759441	      0.19925209	      0.80326341	      0.63115346	      2.39203220	    -11.12260665	    -13.36440873	      5.36221982	      0.09358839	     13.84373015	     13.78690676	      0.00000000	      6.79917702	      9.29557255	      4.78377038	     11.45595540	      0.19994414	    -11.31766119	    -18.52100289	      0.00000000	      0.27094914	     -0.94348713	      0.00338488	      0.50317965	     -1.25483788	      0.00359644	      0.44514235	     -2.29399460	      0.00359644	      0.30966777	     -2.29399460	      0.00296177	      0.25160337	     -1.92395895	      0.00275022	      0.15482034	     -1.46146156	      0.00253866	      1.93536263	    -10.67291509	      0.01882570	      0.00000000	      0.00000000	     27.97411765	     -0.17141437	     -1.99371072	     13.14344561	     -2.40070017	     56.54519252	     38.06153828	     26.13539828	     -1.16565528	     10.75783189	     20.54718514	     -5.56076961	     68.22515710	     39.34924318	     46.54138850	     -2.19362280	      5.74381611
